<?xml version="1.0" encoding="utf-8"?>
<!-- Generator: Adobe Illustrator 16.0.0, SVG Export Plug-In . SVG Version: 6.00 Build 0)  -->
<!DOCTYPE svg PUBLIC "-//W3C//DTD SVG 1.1//EN" "http://www.w3.org/Graphics/SVG/1.1/DTD/svg11.dtd">
<svg version="1.1" id="Layer_1" xmlns="http://www.w3.org/2000/svg" xmlns:xlink="http://www.w3.org/1999/xlink" x="0px" y="0px"
	 width="135.665px" height="32.113px" viewBox="0 0 135.665 32.113" enable-background="new 0 0 135.665 32.113"
	 xml:space="preserve">
<path fill="#ffffff" d="M89.84,21.438V1.872h-2.691L73.686,21.591v2.33h13.357v5.893h2.797v-5.893h3.143v-2.482H89.84z
	 M76.758,21.438L87.043,6.415v15.023H76.758z"/>
<path fill="#ffffff" d="M50.963,5.398c1.605-1.058,3.377-1.594,5.262-1.594c2.018,0,3.79,0.465,5.268,1.381
	c1.479,0.919,2.841,2.504,4.049,4.713l0.117,0.216l2.119-1.507L67.7,8.441c-1.034-2.201-2.569-3.958-4.561-5.219
	c-1.99-1.261-4.304-1.9-6.875-1.9c-2.361,0-4.596,0.653-6.639,1.938c-2.038,1.285-3.696,3.057-4.928,5.266
	c-1.229,2.21-1.854,4.672-1.854,7.317c0,2.669,0.577,5.141,1.713,7.349c1.139,2.212,2.731,3.979,4.734,5.251
	c2.003,1.274,4.283,1.92,6.777,1.92c2.809,0,5.144-0.621,6.939-1.845c1.788-1.218,3.35-2.987,4.645-5.259l0.098-0.173l-2.094-1.477
	l-0.117,0.22c-1.104,2.078-2.414,3.624-3.895,4.595c-1.476,0.967-3.312,1.457-5.459,1.457c-2.043,0-3.887-0.529-5.479-1.574
	c-1.596-1.047-2.852-2.498-3.734-4.313c-0.885-1.82-1.333-3.89-1.333-6.15c0-2.206,0.487-4.255,1.448-6.087
	C48.048,7.925,49.352,6.46,50.963,5.398"/>
<polygon fill="#ffffff" points="97.534,1.872 97.534,4.354 106.061,4.354 106.061,29.813 108.856,29.813 108.856,4.354 
	117.381,4.354 117.381,1.872 "/>
<path fill="#ffffff" d="M126.944,21.996c-0.889-0.521-1.594-1.226-2.115-2.114s-0.781-1.858-0.781-2.912s0.26-2.024,0.781-2.912
	c0.521-0.889,1.227-1.594,2.115-2.115c0.887-0.521,1.859-0.782,2.912-0.782s2.023,0.261,2.912,0.782s1.594,1.227,2.115,2.115
	c0.521,0.888,0.781,1.858,0.781,2.912s-0.26,2.023-0.781,2.912s-1.227,1.594-2.115,2.114c-0.889,0.521-1.859,0.782-2.912,0.782
	S127.831,22.518,126.944,21.996 M132.194,20.991c0.707-0.415,1.266-0.979,1.676-1.692c0.408-0.712,0.615-1.488,0.615-2.329
	s-0.207-1.617-0.615-2.331c-0.41-0.712-0.969-1.275-1.676-1.69s-1.486-0.623-2.338-0.623c-0.84,0-1.615,0.208-2.322,0.623
	s-1.266,0.979-1.676,1.69c-0.41,0.714-0.615,1.49-0.615,2.331s0.205,1.617,0.615,2.329c0.41,0.713,0.969,1.277,1.676,1.692
	s1.482,0.623,2.322,0.623C130.708,21.614,131.487,21.406,132.194,20.991 M127.573,13.793h2.586c0.703,0,1.242,0.177,1.619,0.527
	c0.379,0.351,0.568,0.813,0.568,1.388c0,0.458-0.145,0.85-0.432,1.174s-0.67,0.545-1.148,0.662l1.531,2.602h-1.293l-1.5-2.554h-0.75
	v2.554h-1.182V13.793z M130.112,16.618c0.361,0,0.635-0.08,0.822-0.239c0.186-0.16,0.277-0.383,0.277-0.671
	c0-0.287-0.092-0.51-0.277-0.67c-0.188-0.159-0.461-0.239-0.822-0.239h-1.357v1.819H130.112z"/>
<path fill="#ffffff" d="M12.83,14.876c-0.318,0-0.658-0.058-1.008-0.176L0,10.705l0.751-2.222l11.679,3.945L8.483,0.751L10.706,0
	l3.995,11.821c0.334,0.99,0.189,1.894-0.398,2.48C13.923,14.681,13.412,14.876,12.83,14.876"/>
<path fill="#ffffff" d="M19.299,14.876c-0.582,0-1.094-0.195-1.473-0.574c-0.587-0.587-0.732-1.49-0.398-2.48L21.423,0l2.222,0.751
	l-3.947,11.678l11.68-3.945l0.75,2.222L20.307,14.7C19.957,14.818,19.617,14.876,19.299,14.876"/>
<path fill="#ffffff" d="M10.706,32.113l-2.222-0.751l3.946-11.679L0.751,23.63L0,21.408l11.822-3.994
	c0.989-0.335,1.894-0.19,2.481,0.397c0.587,0.587,0.732,1.491,0.398,2.48L10.706,32.113z"/>
<path fill="#ffffff" d="M21.423,32.113l-3.995-11.821c-0.334-0.989-0.189-1.894,0.398-2.48c0.587-0.587,1.491-0.732,2.48-0.397
	l11.822,3.994l-0.75,2.222l-11.68-3.946l3.947,11.679L21.423,32.113z"/>
</svg>
