<svg xmlns="http://www.w3.org/2000/svg" xmlns:xlink="http://www.w3.org/1999/xlink" id="Layer_1" x="0px" y="0px" viewBox="0 0 396 52" style="enable-background:new 0 0 396 52;" xml:space="preserve"><style type="text/css">	.st0{fill:none;stroke:#000000;stroke-width:6;stroke-miterlimit:10;}	.st1{fill-rule:evenodd;clip-rule:evenodd;}	.st2{fill:#FFFFFF;}	.st3{fill:none;stroke:#000000;stroke-width:2.4956;stroke-miterlimit:10;}	.st4{fill:none;stroke:#000000;stroke-width:3.7752;stroke-miterlimit:10;}	.st5{fill:none;stroke:#000000;stroke-width:4.586;stroke-miterlimit:10;}	.st6{fill:none;stroke:#000000;stroke-width:4.4186;stroke-miterlimit:10;}	.st7{fill:none;stroke:#000000;stroke-width:4.4186;stroke-linecap:round;stroke-linejoin:round;stroke-miterlimit:10;}	.st8{fill:none;stroke:#000000;stroke-width:4.3746;stroke-miterlimit:10;}	.st9{fill:#F1F1F1;}	.st10{fill:none;stroke:#000000;stroke-width:3.8627;stroke-linecap:round;stroke-linejoin:round;stroke-miterlimit:10;}	.st11{fill:none;stroke:#000000;stroke-width:4.4285;stroke-linecap:round;stroke-linejoin:round;stroke-miterlimit:10;}	.st12{fill:none;stroke:#000000;stroke-width:9.0511;stroke-miterlimit:10;}	.st13{fill:none;stroke:#000000;stroke-width:9.0511;stroke-linecap:round;stroke-linejoin:round;stroke-miterlimit:10;}	.st14{fill:#1AFF80;}	.st15{fill:none;stroke:#000000;stroke-width:4.3208;stroke-miterlimit:10;}	.st16{fill:none;stroke:#000000;stroke-width:4.86;stroke-miterlimit:10;}	.st17{fill:none;stroke:#000000;stroke-width:8.1687;stroke-linecap:round;stroke-linejoin:round;stroke-miterlimit:10;}</style><g>	<g>		<g>			<path d="M87.09,31.25c-1.98,3.91-5.29,6.15-9.59,6.15c-6.15,0-10.92-4.69-10.92-11.26s5.03-11.26,10.92-11.26    c4.6,0,7.95,2.19,9.46,5.85l-2.54,1.68c-1.59-3.4-4.08-4.51-6.88-4.51c-4.26,0-7.61,3.18-7.61,8.25s3.22,8.25,7.61,8.25    c3.57,0,5.59-1.81,7.14-4.69L87.09,31.25z"></path>			<path d="M103,37.4c-5.33,0-11.13-4-11.13-11.26c0-7.27,5.8-11.26,11.13-11.26c5.33,0,11.13,4,11.13,11.26    C114.13,33.4,108.33,37.4,103,37.4z M110.69,26.14c0-4.77-3.35-8.25-7.7-8.25s-7.7,3.48-7.7,8.25c0,4.77,3.35,8.25,7.7,8.25    S110.69,30.91,110.69,26.14z"></path>			<path d="M140.49,36.8h-3.35v-3.83c-1.59,2.79-4.08,4.43-7.35,4.43c-5.98,0-10.32-4.69-10.32-11.26s4.77-11.26,10.1-11.26    c3.53,0,6.28,1.68,7.57,4.47V6.7h3.35V36.8z M137.39,26.14c0-4.94-3.18-8.17-7.22-8.17c-4.04,0-7.27,3.22-7.27,8.17    c0,4.94,3.22,8.17,7.27,8.17C134.21,34.3,137.39,31.08,137.39,26.14z"></path>			<path d="M150.63,26.69c0.21,4.47,2.92,7.87,7.35,7.87c3.87,0,5.8-2.11,7.18-4.86l2.45,1.46c-1.98,3.91-4.94,6.23-9.76,6.23    c-5.8,0-10.58-4.69-10.58-11.26s4.77-11.26,10.71-11.26c6.41,0,10.28,4.43,10.28,10.66v1.16H150.63z M150.89,23.94h14.02    c-0.21-4.04-3.65-6.23-6.92-6.23C154.16,17.71,151.66,20.29,150.89,23.94z"></path>			<path d="M173.37,27.77L188.12,6.7h3.18v21.07h3.44v2.84h-3.44v6.19h-3.27v-6.19h-14.66V27.77z M176.77,27.77h11.26V11.56    L176.77,27.77z"></path>			<path d="M199.42,15.47h3.57V9.71h3.35v5.76h4.9v2.67h-4.9v12.9c0,2.28,0.43,3.44,2.92,3.44c0.47,0,1.16-0.13,1.59-0.26l0.3,2.79    c-0.73,0.26-1.55,0.39-2.84,0.39c-2.75,0-5.33-1.38-5.33-5.72V18.14h-3.57V15.47z"></path>			<path d="M236.05,36.8h-3.35V23c0-3.4-2.19-5.12-5.2-5.12c-3.27,0-6.36,2.71-6.36,7.09V36.8h-3.35V6.7h3.35v12.51    c1.38-2.62,4.26-4.34,7.27-4.34c3.96,0,7.65,2.32,7.65,7.52V36.8z"></path>			<path d="M253.55,37.4c-5.33,0-11.13-4-11.13-11.26c0-7.27,5.8-11.26,11.13-11.26c5.33,0,11.13,4,11.13,11.26    C264.68,33.4,258.88,37.4,253.55,37.4z M261.24,26.14c0-4.77-3.35-8.25-7.7-8.25s-7.7,3.48-7.7,8.25c0,4.77,3.35,8.25,7.7,8.25    S261.24,30.91,261.24,26.14z"></path>			<path d="M271.13,15.47h3.35v13.89c0,3.35,2.11,5.03,5.03,5.03c3.35,0,6.28-2.71,6.28-6.96V15.47h3.35V36.8h-3.35v-3.74    c-1.42,2.71-3.96,4.34-7.09,4.34c-3.87,0-7.57-2.19-7.57-7.87V15.47z"></path>			<path d="M300.75,38.69c-0.21,0.47-0.3,0.82-0.3,1.42c0,1.85,1.98,3.05,5.8,3.05c4.73,0,6.84-2.54,6.84-7.44v-3.65    c-1.42,2.75-4.04,4.39-7.18,4.39c-5.55,0-9.97-4.21-9.97-10.79c0-6.88,4.51-10.79,9.85-10.79c3.4,0,6.15,1.72,7.31,4.43v-3.83    h3.35v20.21c0,6.53-3.65,10.49-10.19,10.49c-6.1,0-9.16-2.62-9.16-6.19c0-0.99,0.21-1.72,0.47-2.19L300.75,38.69z M299.37,25.66    c0,4.86,2.92,7.78,6.92,7.78s7.05-2.92,7.05-7.78s-3.05-7.78-7.05-7.78S299.37,20.8,299.37,25.66z"></path>			<path d="M342.62,36.8h-3.35V23c0-3.4-2.19-5.12-5.2-5.12c-3.27,0-6.36,2.71-6.36,7.09V36.8h-3.35V6.7h3.35v12.51    c1.38-2.62,4.26-4.34,7.27-4.34c3.96,0,7.65,2.32,7.65,7.52V36.8z"></path>			<path d="M347.73,15.47h3.57V9.71h3.35v5.76h4.9v2.67h-4.9v12.9c0,2.28,0.43,3.44,2.92,3.44c0.47,0,1.16-0.13,1.59-0.26l0.3,2.79    c-0.73,0.26-1.55,0.39-2.84,0.39c-2.75,0-5.33-1.38-5.33-5.72V18.14h-3.57V15.47z"></path>		</g>	</g>	<g>		<path d="M378.4,32.94c-1.24-0.73-2.22-1.71-2.95-2.95c-0.73-1.24-1.09-2.59-1.09-4.06s0.36-2.82,1.09-4.06   c0.73-1.24,1.71-2.22,2.95-2.95c1.24-0.73,2.59-1.09,4.06-1.09c1.47,0,2.82,0.36,4.06,1.09c1.24,0.73,2.22,1.71,2.95,2.95   c0.73,1.24,1.09,2.59,1.09,4.06s-0.36,2.82-1.09,4.06c-0.73,1.24-1.71,2.22-2.95,2.95c-1.24,0.73-2.59,1.09-4.06,1.09   C381,34.03,379.64,33.67,378.4,32.94z M385.73,31.54c0.99-0.58,1.77-1.37,2.34-2.36c0.57-0.99,0.86-2.08,0.86-3.25   c0-1.17-0.29-2.26-0.86-3.25c-0.57-0.99-1.35-1.78-2.34-2.36c-0.99-0.58-2.07-0.87-3.26-0.87c-1.17,0-2.25,0.29-3.24,0.87   c-0.99,0.58-1.77,1.37-2.34,2.36c-0.57,0.99-0.86,2.08-0.86,3.25c0,1.17,0.29,2.26,0.86,3.25c0.57,0.99,1.35,1.78,2.34,2.36   c0.99,0.58,2.07,0.87,3.24,0.87C383.65,32.41,384.74,32.12,385.73,31.54z M379.28,21.5h3.61c0.98,0,1.73,0.24,2.26,0.73   c0.53,0.49,0.79,1.14,0.79,1.94c0,0.64-0.2,1.18-0.6,1.64c-0.4,0.45-0.94,0.76-1.6,0.92l2.14,3.63h-1.8l-2.09-3.56h-1.05v3.56   h-1.65V21.5z M382.82,25.44c0.5,0,0.89-0.11,1.15-0.33c0.26-0.22,0.39-0.53,0.39-0.94c0-0.4-0.13-0.71-0.39-0.94   c-0.26-0.22-0.64-0.33-1.15-0.33h-1.89v2.54H382.82z"></path>	</g>	<g>		<g>			<g>				<path d="M22.86,24.4c-0.43,0-0.89-0.08-1.37-0.24L5.43,18.73l1.02-3.02l15.87,5.36L16.96,5.2l3.02-1.02l5.43,16.06     c0.45,1.34,0.26,2.57-0.54,3.37C24.35,24.13,23.65,24.4,22.86,24.4z"></path>			</g>			<g>				<path d="M31.65,24.4c-0.79,0-1.49-0.26-2-0.78c-0.8-0.8-0.99-2.03-0.54-3.37l5.43-16.06l3.02,1.02L32.2,21.07l15.87-5.36     l1.02,3.02l-16.06,5.43C32.55,24.32,32.08,24.4,31.65,24.4z"></path>			</g>			<g>				<path d="M19.98,47.82l-3.02-1.02l5.36-15.87L6.45,36.29l-1.02-3.02l16.06-5.43c1.35-0.45,2.57-0.26,3.37,0.54     c0.8,0.8,0.99,2.03,0.54,3.37L19.98,47.82z"></path>			</g>			<g>				<path d="M34.54,47.82l-5.43-16.06c-0.45-1.34-0.26-2.57,0.54-3.37c0.8-0.8,2.03-0.99,3.37-0.54l16.06,5.43l-1.02,3.02     L32.2,30.93l5.36,15.87L34.54,47.82z"></path>			</g>		</g>	</g></g></svg>